<svg width="256" height="256" viewBox="0 0 256 256" fill="none" xmlns="http://www.w3.org/2000/svg">
  <defs>
    <radialGradient id="bg" cx="0" cy="0" r="1" gradientUnits="userSpaceOnUse" gradientTransform="translate(92 82) rotate(48.9) scale(144.322)">
      <stop offset="0" stop-color="#ffffff"/>
      <stop offset="0.22" stop-color="#eef2f7"/>
      <stop offset="0.48" stop-color="#b7c1cf"/>
      <stop offset="0.78" stop-color="#78859b"/>
      <stop offset="1" stop-color="#313c53"/>
    </radialGradient>
    <radialGradient id="glow" cx="0" cy="0" r="1" gradientUnits="userSpaceOnUse" gradientTransform="translate(128 128) rotate(90) scale(118)">
      <stop offset="0.56" stop-color="#d6d8de" stop-opacity="0"/>
      <stop offset="1" stop-color="#d6d8de" stop-opacity="0.45"/>
    </radialGradient>
    <filter id="blur" x="0" y="0" width="256" height="256" filterUnits="userSpaceOnUse">
      <feGaussianBlur stdDeviation="8"/>
    </filter>
  </defs>
  <circle cx="128" cy="128" r="118" fill="url(#glow)" filter="url(#blur)"/>
  <circle cx="128" cy="128" r="98" fill="url(#bg)"/>
  <path d="M54 120C74 95 105 79 135 81C164 84 191 103 205 132C185 145 161 153 132 154C96 156 69 144 54 120Z" fill="#F6F8FB" fill-opacity="0.25"/>
  <path d="M75 74C92 63 120 60 147 67C138 79 126 87 111 93C91 101 72 102 58 94C60 85 66 80 75 74Z" fill="#FFFFFF" fill-opacity="0.28"/>
  <path d="M84 169C105 154 141 152 173 164C163 183 143 197 118 200C99 202 82 194 68 180C71 175 77 171 84 169Z" fill="#5B6880" fill-opacity="0.34"/>
  <circle cx="95" cy="91" r="23" fill="#ffffff" fill-opacity="0.12"/>
</svg>
